# xmcd
#
# Track frame offsets:
#	150
#	9049
#	23514
#	34781
#	48040
#	58583
#	68213
#	84245
#	94224
#	105366
#
# Disc length: 1559 seconds
#
# Revision: 0
# Processed by: cddbd v1.5.2PL0 Copyright (c) Steve Scherf et al.
# Submitted via: EZCDAudioConverter 3.1.0.1
#
DISCID=6306150a
DTITLE=Gene Hofford - New Country City Beat Originals
DYEAR=1985
DGENRE=
TTITLE0=Yo-Yo
TTITLE1=Do You Mind If I Cry
TTITLE2=All I Need Is Someone To Love
TTITLE3=Better Hang On Girl
TTITLE4=I'll Go On Lovin' You
TTITLE5=Back In The Saddle
TTITLE6=Labor Of Love
TTITLE7=Get It Together
TTITLE8=Don't Let Her Down
TTITLE9=Eternal Love
EXTD=
EXTT0=
EXTT1=
EXTT2=
EXTT3=
EXTT4=
EXTT5=
EXTT6=
EXTT7=
EXTT8=
EXTT9=
PLAYORDER=
